<mxfile host="app.diagrams.net" modified="2024-06-06T19:37:49.626Z" agent="Mozilla/5.0 (Windows NT 10.0; Win64; x64) AppleWebKit/537.36 (KHTML, like Gecko) Chrome/125.0.0.0 Safari/537.36" etag="jtuYVpR3P3sI_AnVdVkG" version="24.4.13" type="github">
  <diagram name="PÃ¡gina-1" id="-P5OC35mNyYKj8KSIJd3">
    <mxGraphModel dx="2327" dy="861" grid="1" gridSize="10" guides="1" tooltips="1" connect="1" arrows="1" fold="1" page="1" pageScale="1" pageWidth="827" pageHeight="1169" background="none" math="0" shadow="0">
      <root>
        <mxCell id="0" />
        <mxCell id="1" parent="0" />
        <mxCell id="EmTkuBFLQtPAnqklq-cd-81" style="edgeStyle=orthogonalEdgeStyle;rounded=0;orthogonalLoop=1;jettySize=auto;html=1;entryX=0;entryY=0.5;entryDx=0;entryDy=0;" edge="1" parent="1" source="EmTkuBFLQtPAnqklq-cd-3" target="EmTkuBFLQtPAnqklq-cd-36">
          <mxGeometry relative="1" as="geometry">
            <mxPoint x="190" y="235" as="targetPoint" />
          </mxGeometry>
        </mxCell>
        <mxCell id="EmTkuBFLQtPAnqklq-cd-3" value="Wireless Access Point" style="verticalLabelPosition=bottom;sketch=0;html=1;fillColor=#6ABD46;strokeColor=#ffffff;verticalAlign=top;align=center;points=[[0.085,0.085,0],[0.915,0.085,0],[0.915,0.915,0],[0.085,0.915,0],[0.25,0,0],[0.5,0,0],[0.75,0,0],[1,0.25,0],[1,0.5,0],[1,0.75,0],[0.75,1,0],[0.5,1,0],[0.25,1,0],[0,0.75,0],[0,0.5,0],[0,0.25,0]];pointerEvents=1;shape=mxgraph.cisco_safe.compositeIcon;bgIcon=mxgraph.cisco_safe.architecture.generic_appliance;resIcon=mxgraph.cisco_safe.architecture.wireless_access_point;" vertex="1" parent="1">
          <mxGeometry x="40" y="210" width="50" height="50" as="geometry" />
        </mxCell>
        <mxCell id="EmTkuBFLQtPAnqklq-cd-5" value="&lt;font style=&quot;font-size: 15px;&quot;&gt;Data Server&lt;/font&gt;" style="verticalLabelPosition=bottom;html=1;verticalAlign=top;strokeWidth=1;align=center;outlineConnect=0;dashed=0;outlineConnect=0;shape=mxgraph.aws3d.dataServer;strokeColor=#5E5E5E;aspect=fixed;" vertex="1" parent="1">
          <mxGeometry x="820" y="350" width="123" height="106" as="geometry" />
        </mxCell>
        <mxCell id="EmTkuBFLQtPAnqklq-cd-79" style="edgeStyle=orthogonalEdgeStyle;rounded=0;orthogonalLoop=1;jettySize=auto;html=1;" edge="1" parent="1" source="EmTkuBFLQtPAnqklq-cd-6" target="EmTkuBFLQtPAnqklq-cd-36">
          <mxGeometry relative="1" as="geometry" />
        </mxCell>
        <mxCell id="EmTkuBFLQtPAnqklq-cd-6" value="&lt;font style=&quot;font-size: 15px;&quot;&gt;Temperature Sensor&lt;/font&gt;" style="sketch=0;outlineConnect=0;fontColor=#232F3E;gradientColor=none;fillColor=#7AA116;strokeColor=none;dashed=0;verticalLabelPosition=bottom;verticalAlign=top;align=center;html=1;fontSize=12;fontStyle=0;aspect=fixed;pointerEvents=1;shape=mxgraph.aws4.iot_thing_temperature_sensor;" vertex="1" parent="1">
          <mxGeometry x="140" y="100" width="58" height="58" as="geometry" />
        </mxCell>
        <mxCell id="EmTkuBFLQtPAnqklq-cd-87" style="edgeStyle=orthogonalEdgeStyle;rounded=0;orthogonalLoop=1;jettySize=auto;html=1;" edge="1" parent="1" source="EmTkuBFLQtPAnqklq-cd-7" target="EmTkuBFLQtPAnqklq-cd-10">
          <mxGeometry relative="1" as="geometry">
            <mxPoint x="360" y="540" as="targetPoint" />
            <Array as="points">
              <mxPoint x="260" y="503" />
            </Array>
          </mxGeometry>
        </mxCell>
        <mxCell id="EmTkuBFLQtPAnqklq-cd-7" value="&lt;font style=&quot;font-size: 15px;&quot;&gt;Humidity Sensor&lt;/font&gt;" style="sketch=0;outlineConnect=0;fontColor=#232F3E;gradientColor=none;fillColor=#7AA116;strokeColor=none;dashed=0;verticalLabelPosition=bottom;verticalAlign=top;align=center;html=1;fontSize=12;fontStyle=0;aspect=fixed;pointerEvents=1;shape=mxgraph.aws4.iot_thing_humidity_sensor;" vertex="1" parent="1">
          <mxGeometry x="140" y="476" width="54" height="54" as="geometry" />
        </mxCell>
        <mxCell id="EmTkuBFLQtPAnqklq-cd-98" style="edgeStyle=orthogonalEdgeStyle;rounded=0;orthogonalLoop=1;jettySize=auto;html=1;fillColor=#1ba1e2;strokeColor=#006EAF;" edge="1" parent="1" source="EmTkuBFLQtPAnqklq-cd-10" target="EmTkuBFLQtPAnqklq-cd-17">
          <mxGeometry relative="1" as="geometry" />
        </mxCell>
        <mxCell id="EmTkuBFLQtPAnqklq-cd-100" style="edgeStyle=orthogonalEdgeStyle;rounded=0;orthogonalLoop=1;jettySize=auto;html=1;fillColor=#1ba1e2;strokeColor=#006EAF;" edge="1" parent="1" source="EmTkuBFLQtPAnqklq-cd-10" target="EmTkuBFLQtPAnqklq-cd-56">
          <mxGeometry relative="1" as="geometry">
            <mxPoint x="360" y="545.0000000000002" as="sourcePoint" />
            <mxPoint x="610" y="520" as="targetPoint" />
            <Array as="points">
              <mxPoint x="590" y="595" />
            </Array>
          </mxGeometry>
        </mxCell>
        <mxCell id="EmTkuBFLQtPAnqklq-cd-10" value="&lt;font style=&quot;font-size: 15px;&quot;&gt;Switch 2&lt;/font&gt;" style="image;html=1;image=img/lib/clip_art/networking/Switch_128x128.png" vertex="1" parent="1">
          <mxGeometry x="210" y="555" width="80" height="80" as="geometry" />
        </mxCell>
        <mxCell id="EmTkuBFLQtPAnqklq-cd-117" style="edgeStyle=orthogonalEdgeStyle;rounded=0;orthogonalLoop=1;jettySize=auto;html=1;fillColor=#d80073;strokeColor=#A50040;" edge="1" parent="1" source="EmTkuBFLQtPAnqklq-cd-17" target="EmTkuBFLQtPAnqklq-cd-5">
          <mxGeometry relative="1" as="geometry">
            <mxPoint x="830" y="30" as="targetPoint" />
            <Array as="points">
              <mxPoint x="500" y="197" />
              <mxPoint x="830" y="197" />
              <mxPoint x="830" y="200" />
              <mxPoint x="882" y="200" />
            </Array>
          </mxGeometry>
        </mxCell>
        <mxCell id="EmTkuBFLQtPAnqklq-cd-17" value="&lt;font style=&quot;font-size: 15px;&quot;&gt;Wired Router A&lt;/font&gt;&lt;div style=&quot;font-size: 15px;&quot;&gt;&lt;br&gt;&lt;/div&gt;" style="image;html=1;image=img/lib/clip_art/networking/Router_128x128.png;labelBackgroundColor=none;" vertex="1" parent="1">
          <mxGeometry x="460" y="363" width="80" height="80" as="geometry" />
        </mxCell>
        <mxCell id="EmTkuBFLQtPAnqklq-cd-78" style="edgeStyle=orthogonalEdgeStyle;rounded=0;orthogonalLoop=1;jettySize=auto;html=1;" edge="1" parent="1" source="EmTkuBFLQtPAnqklq-cd-34" target="EmTkuBFLQtPAnqklq-cd-36">
          <mxGeometry relative="1" as="geometry" />
        </mxCell>
        <mxCell id="EmTkuBFLQtPAnqklq-cd-34" value="&lt;font style=&quot;font-size: 15px;&quot;&gt;Salinity Sensor&lt;/font&gt;" style="sketch=0;outlineConnect=0;fontColor=#232F3E;gradientColor=none;fillColor=#7AA116;strokeColor=none;dashed=0;verticalLabelPosition=bottom;verticalAlign=top;align=center;html=1;fontSize=12;fontStyle=0;aspect=fixed;pointerEvents=1;shape=mxgraph.aws4.iot_thing_temperature_vibration_sensor;" vertex="1" parent="1">
          <mxGeometry x="150" y="290" width="48" height="48" as="geometry" />
        </mxCell>
        <mxCell id="EmTkuBFLQtPAnqklq-cd-88" style="edgeStyle=orthogonalEdgeStyle;rounded=0;orthogonalLoop=1;jettySize=auto;html=1;" edge="1" parent="1" source="EmTkuBFLQtPAnqklq-cd-35" target="EmTkuBFLQtPAnqklq-cd-10">
          <mxGeometry relative="1" as="geometry" />
        </mxCell>
        <mxCell id="EmTkuBFLQtPAnqklq-cd-35" value="&lt;font style=&quot;font-size: 15px;&quot;&gt;pH Sensor&lt;/font&gt;&lt;div style=&quot;font-size: 15px;&quot;&gt;&lt;br&gt;&lt;/div&gt;" style="sketch=0;outlineConnect=0;fontColor=#232F3E;gradientColor=none;fillColor=#7AA116;strokeColor=none;dashed=0;verticalLabelPosition=bottom;verticalAlign=top;align=center;html=1;fontSize=12;fontStyle=0;aspect=fixed;pointerEvents=1;shape=mxgraph.aws4.iot_thing_humidity_sensor;" vertex="1" parent="1">
          <mxGeometry x="144" y="650" width="50" height="50" as="geometry" />
        </mxCell>
        <mxCell id="EmTkuBFLQtPAnqklq-cd-82" style="edgeStyle=orthogonalEdgeStyle;rounded=0;orthogonalLoop=1;jettySize=auto;html=1;entryX=0;entryY=0.5;entryDx=0;entryDy=0;fillColor=#60a917;strokeColor=#2D7600;" edge="1" parent="1" source="EmTkuBFLQtPAnqklq-cd-36" target="EmTkuBFLQtPAnqklq-cd-17">
          <mxGeometry relative="1" as="geometry" />
        </mxCell>
        <mxCell id="EmTkuBFLQtPAnqklq-cd-99" style="edgeStyle=orthogonalEdgeStyle;rounded=0;orthogonalLoop=1;jettySize=auto;html=1;fillColor=#60a917;strokeColor=#2D7600;" edge="1" parent="1" source="EmTkuBFLQtPAnqklq-cd-36" target="EmTkuBFLQtPAnqklq-cd-56">
          <mxGeometry relative="1" as="geometry" />
        </mxCell>
        <mxCell id="EmTkuBFLQtPAnqklq-cd-36" value="&lt;font style=&quot;font-size: 15px;&quot;&gt;Switch 1&lt;/font&gt;" style="image;html=1;image=img/lib/clip_art/networking/Switch_128x128.png" vertex="1" parent="1">
          <mxGeometry x="210" y="195" width="80" height="80" as="geometry" />
        </mxCell>
        <mxCell id="EmTkuBFLQtPAnqklq-cd-39" value="Wireless Access Point" style="verticalLabelPosition=bottom;sketch=0;html=1;fillColor=#6ABD46;strokeColor=#ffffff;verticalAlign=top;align=center;points=[[0.085,0.085,0],[0.915,0.085,0],[0.915,0.915,0],[0.085,0.915,0],[0.25,0,0],[0.5,0,0],[0.75,0,0],[1,0.25,0],[1,0.5,0],[1,0.75,0],[0.75,1,0],[0.5,1,0],[0.25,1,0],[0,0.75,0],[0,0.5,0],[0,0.25,0]];pointerEvents=1;shape=mxgraph.cisco_safe.compositeIcon;bgIcon=mxgraph.cisco_safe.architecture.generic_appliance;resIcon=mxgraph.cisco_safe.architecture.wireless_access_point;" vertex="1" parent="1">
          <mxGeometry x="30" y="570" width="50" height="50" as="geometry" />
        </mxCell>
        <mxCell id="EmTkuBFLQtPAnqklq-cd-118" style="edgeStyle=orthogonalEdgeStyle;rounded=0;orthogonalLoop=1;jettySize=auto;html=1;fillColor=#d80073;strokeColor=#A50040;" edge="1" parent="1" source="EmTkuBFLQtPAnqklq-cd-56" target="EmTkuBFLQtPAnqklq-cd-5">
          <mxGeometry relative="1" as="geometry" />
        </mxCell>
        <mxCell id="EmTkuBFLQtPAnqklq-cd-56" value="&lt;font style=&quot;font-size: 15px;&quot;&gt;Wired Router B&lt;/font&gt;&lt;div style=&quot;font-size: 15px;&quot;&gt;&lt;br&gt;&lt;/div&gt;" style="image;html=1;image=img/lib/clip_art/networking/Router_128x128.png;labelBackgroundColor=none;" vertex="1" parent="1">
          <mxGeometry x="570" y="363" width="80" height="80" as="geometry" />
        </mxCell>
        <mxCell id="EmTkuBFLQtPAnqklq-cd-86" style="edgeStyle=orthogonalEdgeStyle;rounded=0;orthogonalLoop=1;jettySize=auto;html=1;" edge="1" parent="1" source="EmTkuBFLQtPAnqklq-cd-39">
          <mxGeometry relative="1" as="geometry">
            <mxPoint x="200" y="595" as="targetPoint" />
          </mxGeometry>
        </mxCell>
      </root>
    </mxGraphModel>
  </diagram>
</mxfile>
